<?xml version="1.0" encoding="utf-8"?>
<!-- Generator: Adobe Illustrator 19.0.0, SVG Export Plug-In . SVG Version: 6.00 Build 0)  -->
<svg version="1.1" id="layer" xmlns="http://www.w3.org/2000/svg" xmlns:xlink="http://www.w3.org/1999/xlink" x="0px" y="0px"
	 viewBox="-153 -46 652 652" style="enable-background:new -153 -46 652 652;" xml:space="preserve">
<style type="text/css">
	.st0{fill:#05BFE0;}
	.st1{fill:#FF610F;}
	.st2{fill:#231F20;}
	.st3{fill:#4F17A8;}
</style>
<g id="logo_x2F_pmi">
	<g id="Logo">
		<path id="Fill-1" class="st0" d="M-68.2,320.7c0-11.7,9.5-21.2,21.1-21.2h0v-21.2h-84.6v21.2c11.7,0,21.2,9.5,21.2,21.2v0
			c0,11.7-9.5,21.2-21.2,21.2V363H-47v-21.2C-58.7,341.9-68.2,332.4-68.2,320.7L-68.2,320.7z"/>
		<path id="Fill-3" class="st1" d="M0.9,230.4c0-23.4-18.9-42.3-42.3-42.3v84.6C-18,272.8,0.9,253.8,0.9,230.4
			c0,23.4,18.9,42.3,42.3,42.3v-84.6C19.9,188.1,0.9,207.1,0.9,230.4"/>
		<path id="Fill-5" class="st2" d="M-76.1,230.4h-39.6V204h39.6c7.3,0,13.2,5.9,13.2,13.2C-63,224.5-68.9,230.4-76.1,230.4
			L-76.1,230.4z M-73.5,188.3c-0.9-0.1-1.8-0.1-2.6-0.1h-55.5v84.6h15.8v-26.4h39.6c0.9,0,1.8,0,2.6-0.1c16-1.4,27.8-15.5,26.4-31.5
			C-48.4,200.7-59.5,189.5-73.5,188.3L-73.5,188.3z"/>
		<polygon id="Fill-7" class="st3" points="-41.4,363 -41.4,337.6 -16,363 		"/>
		<polygon id="Fill-9" class="st3" points="8.3,363 -38.6,316.1 -38.6,292.5 32,363 		"/>
		<polygon id="Fill-11" class="st3" points="46.1,278.4 46.1,303.8 20.7,278.4 		"/>
		<polygon id="Fill-13" class="st3" points="43.2,348.9 -27.3,278.4 -3.6,278.4 43.2,325.2 		"/>
		<path id="Fill-15" d="M53.7,357.4h1.2l2,4.6l2-4.6h1.2v5.6h-0.9v-4.4l-1.9,4.4h-0.8l-1.9-4.4v4.4h-0.9L53.7,357.4z M50.6,358.2
			h-1.7v-0.8h4.3v0.8h-1.7v4.8h-0.9V358.2z"/>
		<path id="Fill-17" d="M106.7,207.1c1.5,0,2.9-0.3,4.2-0.9c1.2-0.5,2.2-1.4,2.9-2.5c0.7-1,1.1-2.3,1-3.5c0-1.3-0.3-2.5-1-3.6
			c-0.7-1.1-1.7-1.9-2.9-2.4c-1.4-0.6-2.8-0.9-4.3-0.9h-8.3v13.8L106.7,207.1z M88.4,185.3h20c2.8,0,5.5,0.6,8,1.7
			c2.5,1.1,4.6,2.9,6.3,5.1c1.6,2.4,2.5,5.2,2.4,8.1c0,2.7-0.7,5.4-2.1,7.6c-1.5,2.3-3.5,4.2-6,5.3c-2.7,1.3-5.7,2-8.7,1.9h-9.8
			v15.3h-10L88.4,185.3z"/>
		<path id="Fill-19" d="M130.7,197.5h7.4l1.4,4.8c0.7-1.8,2-3.2,3.6-4.3c1.6-1,3.5-1.5,5.5-1.5c1.8,0,3.5,0.4,5,1.3
			c1.5,0.9,2.7,2.2,3.6,3.6c1,1.7,1.5,3.5,1.7,5.4l-7.8,2.1c0-1.5-0.6-2.9-1.7-4c-0.9-1-2.2-1.6-3.6-1.6c-1.1,0-2.1,0.3-3,1
			c-0.9,0.7-1.7,1.7-2.1,2.8c-0.5,1.3-0.7,2.7-0.7,4v16.5h-9.3L130.7,197.5z"/>
		<path id="Fill-21" d="M182.8,219.3c1.2-0.7,2.2-1.7,2.9-2.9c0.7-1.3,1-2.8,1-4.2c0-1.5-0.3-2.9-1-4.3c-0.7-1.2-1.6-2.2-2.9-2.9
			c-1.2-0.7-2.7-1.1-4.1-1.1c-1.4,0-2.9,0.3-4.1,1.1c-1.2,0.7-2.2,1.7-2.8,2.9c-0.7,1.3-1.1,2.8-1,4.3c0,1.5,0.3,2.9,1,4.2
			c0.6,1.2,1.6,2.2,2.8,2.9c1.2,0.7,2.7,1.1,4.1,1.1C180.2,220.3,181.6,220,182.8,219.3L182.8,219.3z M169.9,225.7
			c-2.5-1.2-4.6-3.1-6-5.4c-1.5-2.5-2.3-5.3-2.2-8.1c-0.1-2.8,0.7-5.7,2.1-8.1c1.4-2.3,3.6-4.2,6.1-5.5c5.6-2.6,12-2.6,17.6,0
			c2.5,1.2,4.5,3.1,5.9,5.5c1.5,2.5,2.2,5.3,2.1,8.1c0.1,2.8-0.7,5.7-2.1,8.1c-1.4,2.3-3.5,4.2-6,5.4c-5.6,2.6-12,2.6-17.6,0H169.9z
			"/>
		<g id="Group-25" transform="translate(112.000000, 0.000000)">
			<g id="Clip-24">
			</g>
			<path id="Fill-23" d="M87.6,192.6c-1-1-1.6-2.4-1.6-3.8c-0.1-1.4,0.5-2.8,1.5-3.8c2.3-2,5.7-2,7.9,0c1,1,1.6,2.4,1.5,3.8
				c0.1,1.4-0.5,2.8-1.5,3.8C93.3,194.6,89.9,194.6,87.6,192.6L87.6,192.6z M77.5,242.7c-1.7-0.8-3.2-2-4.3-3.5l4.1-5.3
				c0.5,1,1.3,1.8,2.2,2.4c0.9,0.5,1.9,0.8,2.9,0.8c1.7,0,3.3-1,4-2.5c0.4-0.9,0.6-1.8,0.5-2.7v-33.7h9.2v35c0.1,4-2.2,7.7-5.9,9.4
				c-2,0.9-4.2,1.4-6.4,1.4C81.6,244.1,79.5,243.6,77.5,242.7L77.5,242.7z"/>
		</g>
		<path id="Fill-26" d="M225.9,203.8c-1,0.5-1.9,1.3-2.5,2.3c-0.7,1-1.1,2.2-1.3,3.4h14.2c-0.1-1.2-0.5-2.3-1.1-3.4
			c-1.2-1.9-3.4-3.1-5.8-3.1C228.1,203,227,203.3,225.9,203.8 M238,198.6c2.4,1.2,4.4,3.1,5.6,5.4c1.4,2.5,2.1,5.3,2,8.1v1.3
			c0,0.4,0,0.8-0.1,1.1h-23.5c0.2,1.3,0.7,2.6,1.6,3.6c0.9,1,2.1,1.9,3.5,2.4c1.5,0.6,3,0.8,4.6,0.8c1.9,0,3.7-0.4,5.4-1.1
			c1.5-0.6,2.7-1.5,3.6-2.7l5.5,3.6c-1.4,2.1-3.5,3.8-6,4.7c-3,1.2-6.2,1.8-9.5,1.8c-3.3,0-6.5-0.6-9.5-2c-2.7-1.3-5-3.2-6.6-5.6
			c-1.6-2.4-2.5-5.2-2.4-8.1c-0.1-2.8,0.7-5.5,2.2-8c1.4-2.3,3.5-4.1,6.1-5.4c2.7-1.3,5.7-2,8.7-1.9
			C232.5,196.6,235.4,197.3,238,198.6"/>
		<path id="Fill-28" d="M257.6,225.7c-2.6-1.3-4.7-3.2-6.2-5.5c-1.5-2.4-2.3-5.2-2.2-8c0-2.8,0.7-5.6,2.1-8c1.3-2.3,3.4-4.2,5.8-5.5
			c2.6-1.3,5.5-2,8.4-2c2.4,0,4.7,0.4,6.9,1.3c2.1,0.8,3.9,2,5.4,3.6c1.4,1.5,2.4,3.3,2.9,5.3l-8.4,2c-0.3-1.4-1.2-2.7-2.4-3.6
			c-1.2-0.9-2.7-1.4-4.2-1.4c-1.3,0-2.6,0.4-3.7,1.1c-1.1,0.8-2,1.8-2.6,3c-0.7,1.4-1,2.9-1,4.4c0,1.5,0.3,3,1.1,4.4
			c0.7,1.2,1.7,2.3,2.9,3c2.4,1.3,5.3,1.4,7.8,0.2c1.1-0.5,2.1-1.3,2.8-2.3c0.8-1,1.3-2.1,1.4-3.3l8.5,1.1c-0.3,2.3-1.3,4.5-2.8,6.3
			c-1.6,1.9-3.6,3.4-6,4.4C268.9,228.3,262.8,228.1,257.6,225.7L257.6,225.7z"/>
		<path id="Fill-30" d="M295.1,229.1c-1.8-0.9-3.3-2.2-4.3-3.9c-1-1.9-1.5-3.9-1.5-6v-13.6H283v-6.9h6.3v-8.5l9.6-2l-0.1,10.5h13.3
			v6.9h-13.3l0.1,12.2c-0.1,1.4,0.4,2.8,1.4,4c0.9,1,2.3,1.5,3.6,1.5c1.4,0,2.8-0.4,3.9-1.2c1.2-0.9,2.1-2,2.8-3.2l3.4,5.4
			c-1.2,2-2.8,3.6-4.9,4.8c-2.2,1.1-4.7,1.7-7.2,1.6C299.6,230.5,297.2,230.1,295.1,229.1"/>
		<polygon id="Fill-32" points="88.4,253 96,253 112.4,289.9 128.7,253 136.3,253 136.3,295.3 131.1,295.3 131.1,260.2 115.1,295.3 
			109.6,295.3 93.6,260.3 93.6,295.3 88.4,295.3 		"/>
		<path id="Fill-34" d="M159.8,290.1c1.5-0.8,2.9-1.9,3.8-3.4c0.9-1.5,1.4-3.2,1.4-4.9v-2.1l-9.1,1.1c-3.4,0.4-5.8,1.1-7.2,2.1
			c-1.3,0.7-2.1,2.1-2.2,3.5c0,1.5,0.9,2.8,2.2,3.5c1.7,0.9,3.7,1.4,5.7,1.3C156.3,291.4,158.1,290.9,159.8,290.1 M147.6,294.2
			c-1.6-0.6-3.1-1.7-4.1-3.1c-1-1.3-1.5-2.9-1.5-4.5c0-1.5,0.5-3,1.4-4.3c1.1-1.4,2.6-2.5,4.3-3.3c2.4-1,5-1.7,7.6-1.9l7.3-0.9
			c0.7,0,1.3-0.3,1.8-0.7c0.4-0.4,0.7-0.9,0.7-1.5c0-1.1-0.4-2.2-1.2-3.1c-0.9-0.9-1.9-1.6-3.2-2.1c-1.4-0.5-2.8-0.8-4.3-0.7
			c-1.7,0-3.3,0.3-4.8,1c-1.3,0.6-2.5,1.5-3.4,2.6c-0.8,0.9-1.3,2-1.4,3.2l-4-1.6c0.2-1.6,1-3.2,2.1-4.4c1.3-1.5,3-2.6,4.9-3.4
			c2.1-0.8,4.4-1.3,6.8-1.2c2.3,0,4.6,0.4,6.7,1.3c1.8,0.8,3.4,2.1,4.6,3.7c1.1,1.6,1.7,3.6,1.6,5.5v14.6c0,0.5,0.1,1,0.4,1.4
			c0.3,0.3,0.7,0.5,1.2,0.5c0.5,0,0.9-0.2,1.2-0.5c0.5-0.3,0.9-0.8,1.2-1.2l2.4,2.7c-0.7,0.9-1.6,1.7-2.6,2.2
			c-1,0.5-2.2,0.8-3.4,0.8c-2.6,0.1-4.8-1.9-4.9-4.4c0-0.1,0-0.3,0-0.4v-1.1c-0.7,1.2-1.6,2.3-2.7,3.2c-1.2,0.9-2.5,1.6-3.9,2.1
			c-1.5,0.5-3.2,0.7-4.8,0.7C151.5,295.3,149.5,295,147.6,294.2"/>
		<path id="Fill-36" d="M178.6,265.5h4.3l0.4,4.4c1.1-1.7,2.6-3.2,4.5-4.1c1.9-1,4-1.5,6.2-1.5c2.4,0,4.7,0.5,6.7,1.7
			c1.9,1.1,3.5,2.7,4.5,4.7c1.1,2.1,1.6,4.4,1.6,6.8v17.9h-4.7v-17.8c0-1.6-0.3-3.2-1-4.7c-0.7-1.3-1.7-2.4-3-3.2
			c-1.4-0.8-3-1.2-4.6-1.2c-5.6,0-10.1,4.3-10.1,9.6v0.2v17.2h-4.7V265.5z"/>
		<path id="Fill-38" d="M230.3,290.1c1.5-0.8,2.9-1.9,3.8-3.4c0.9-1.5,1.4-3.1,1.3-4.9v-2.1l-9.1,1.1c-3.3,0.4-5.7,1.1-7.2,2.1
			c-1.3,0.7-2.1,2.1-2.2,3.5c0,1.5,0.9,2.8,2.2,3.5c1.7,0.9,3.7,1.4,5.7,1.3C226.7,291.4,228.6,290.9,230.3,290.1 M218.1,294.2
			c-1.6-0.6-3.1-1.7-4.1-3.1c-1-1.3-1.5-2.9-1.5-4.5c0-1.5,0.5-3,1.4-4.3c1.1-1.4,2.6-2.6,4.3-3.3c2.4-1,5-1.7,7.6-1.9l7.3-0.9
			c0.7,0,1.3-0.3,1.8-0.7c0.4-0.4,0.7-0.9,0.7-1.4c0-1.1-0.4-2.2-1.2-3.1c-0.9-0.9-2-1.6-3.2-2.1c-1.4-0.5-2.8-0.8-4.3-0.7
			c-1.7,0-3.3,0.3-4.8,1c-1.3,0.6-2.5,1.4-3.4,2.5c-0.8,0.9-1.3,2-1.4,3.2l-4-1.6c0.2-1.7,1-3.2,2.1-4.4c1.3-1.5,3-2.6,4.9-3.4
			c2.1-0.8,4.4-1.3,6.8-1.2c2.3,0,4.5,0.4,6.6,1.3c1.9,0.8,3.5,2.1,4.6,3.7c1.1,1.6,1.7,3.6,1.6,5.5v14.6c0,0.5,0.1,1,0.4,1.4
			c0.3,0.3,0.7,0.5,1.2,0.5c0.5,0,0.9-0.2,1.2-0.5c0.5-0.3,0.9-0.8,1.2-1.2l2.4,2.7c-0.7,0.9-1.6,1.7-2.6,2.2
			c-1,0.5-2.2,0.8-3.4,0.8c-2.6,0.1-4.8-1.9-4.9-4.4c0-0.1,0-0.3,0-0.4v-1.1c-0.7,1.2-1.6,2.3-2.7,3.2c-1.2,0.9-2.5,1.6-3.9,2.1
			c-1.5,0.5-3.2,0.7-4.8,0.7C222,295.3,220,295,218.1,294.2"/>
		<path id="Fill-40" d="M270.3,291.7c1.7-1,3.1-2.6,4-4.4c1-1.9,1.5-4.1,1.4-6.3c0-2.3-0.5-4.5-1.4-6.5c-0.9-1.9-2.3-3.4-4-4.5
			c-1.7-1.1-3.7-1.6-5.7-1.6c-4.1-0.1-7.9,2.3-9.8,6.1c-1,2-1.5,4.2-1.4,6.5c0,2.2,0.5,4.3,1.5,6.3c0.9,1.8,2.3,3.3,4,4.4
			C262.4,293.8,266.7,293.8,270.3,291.7L270.3,291.7z M256,311c-2.2-0.8-4.2-1.9-5.9-3.5c-1.6-1.4-2.9-3.2-3.8-5.1l3.8-2.7
			c0.5,1.6,1.4,3.1,2.6,4.3c1.3,1.3,2.8,2.3,4.5,2.9c1.9,0.7,3.8,1.1,5.8,1.1c2.3,0,4.5-0.5,6.5-1.6c1.8-1,3.4-2.6,4.4-4.4
			c1.1-2,1.6-4.2,1.5-6.4v-4.2c-1.2,2-2.9,3.6-4.9,4.7c-2,1.1-4.3,1.7-6.6,1.7c-2.7,0-5.4-0.7-7.8-2.1c-2.3-1.4-4.2-3.5-5.4-5.9
			c-1.3-2.6-2-5.5-1.9-8.5c0-3,0.6-5.9,1.9-8.6c2.5-5.1,7.7-8.3,13.2-8.2c4.7-0.1,9.1,2.3,11.6,6.3l0.5-5.2h4.1v30.1
			c0,3-0.7,6-2.2,8.7c-1.4,2.5-3.5,4.6-6,6c-2.7,1.5-5.7,2.2-8.7,2.1C260.8,312.3,258.4,311.8,256,311L256,311z"/>
		<path id="Fill-42" d="M296.1,269.4c-1.5,0.8-2.8,1.9-3.7,3.2c-1,1.5-1.6,3.1-1.9,4.8h20.5c-0.2-1.7-0.8-3.3-1.7-4.8
			c-0.8-1.4-2-2.5-3.5-3.2c-1.5-0.8-3.1-1.2-4.8-1.1C299.4,268.3,297.6,268.7,296.1,269.4 M308.9,266.2c2.2,1.3,4,3.2,5.2,5.4
			c1.3,2.4,1.9,5.1,1.9,7.9v0.8c0,0.3,0,0.6-0.1,0.9h-25.4c0.2,1.9,0.8,3.7,1.9,5.3c1.1,1.5,2.5,2.8,4.2,3.6
			c3.9,1.8,8.4,1.7,12.2-0.3c1.7-0.9,3.2-2.3,4.1-3.9l3.9,1.5c-1.1,2.4-3,4.4-5.5,5.6c-5.4,2.9-12,2.9-17.5,0.2
			c-2.5-1.3-4.5-3.3-5.9-5.6c-2.8-5-2.9-10.9-0.2-16c1.3-2.3,3.2-4.1,5.5-5.4c2.4-1.3,5.2-2,7.9-2
			C303.9,264.3,306.6,264.9,308.9,266.2"/>
		<path id="Fill-44" d="M319.7,265.5h4.1l0.5,3.7c0.9-1.5,2.3-2.8,3.9-3.6c1.6-0.9,3.5-1.3,5.4-1.3c2.4,0,4.7,0.5,6.7,1.7
			c1.9,1.1,3.4,2.7,4.3,4.6c1-1.9,2.5-3.4,4.3-4.5c5.7-3.4,13.2-1.7,16.7,3.7c0.2,0.3,0.4,0.6,0.5,0.9c1.1,2.1,1.6,4.4,1.6,6.8v17.8
			h-4.7v-17.9c0-1.6-0.3-3.2-1-4.7c-0.6-1.3-1.7-2.4-2.9-3.2c-1.3-0.8-2.8-1.2-4.3-1.2c-1.6,0-3.1,0.4-4.5,1.2
			c-1.3,0.8-2.4,1.9-3.1,3.2c-0.8,1.4-1.1,3-1.1,4.7v17.9h-4.7v-17.9c0-1.6-0.3-3.2-1-4.7c-0.6-1.3-1.6-2.4-2.9-3.2
			c-1.3-0.8-2.8-1.2-4.3-1.2c-1.6,0-3.2,0.4-4.6,1.2c-1.3,0.8-2.4,1.8-3,3.2c-0.7,1.5-1.1,3-1.1,4.7v17.9h-4.7V265.5z"/>
		<path id="Fill-46" d="M383.6,269.4c-1.5,0.8-2.8,1.9-3.7,3.2c-1,1.5-1.6,3.1-1.9,4.8h20.6c-0.2-1.7-0.8-3.3-1.7-4.8
			c-0.8-1.4-2-2.5-3.5-3.2c-1.5-0.8-3.1-1.2-4.8-1.1C386.8,268.2,385.1,268.6,383.6,269.4L383.6,269.4z M396.4,266.2
			c2.2,1.3,4,3.2,5.2,5.4c1.3,2.5,1.9,5.1,1.9,7.9v0.8c0,0.3,0,0.6-0.1,0.9H378c0.2,1.9,0.8,3.7,1.9,5.3c1.1,1.5,2.5,2.8,4.2,3.6
			c3.9,1.8,8.4,1.7,12.2-0.3c1.7-0.9,3.2-2.3,4.1-3.9l3.9,1.5c-1.1,2.4-3.1,4.4-5.5,5.6c-5.4,2.9-12,2.9-17.5,0.2
			c-2.5-1.3-4.5-3.3-5.9-5.6c-1.4-2.5-2.2-5.3-2.1-8.2c0-2.7,0.6-5.4,2-7.8c1.3-2.3,3.2-4.2,5.5-5.4c2.4-1.3,5.2-2,8-2
			C391.4,264.2,394.1,264.9,396.4,266.2L396.4,266.2z"/>
		<path id="Fill-48" d="M412.8,265.5h4.2l0.4,4.4c1.1-1.7,2.6-3.2,4.5-4.1c1.9-1,4-1.5,6.1-1.5c2.4-0.1,4.7,0.5,6.8,1.7
			c1.9,1.1,3.5,2.7,4.5,4.7c1.1,2.1,1.6,4.4,1.6,6.8v17.9h-4.7v-17.8c0-1.6-0.3-3.2-1-4.7c-0.7-1.3-1.7-2.5-3-3.2
			c-1.4-0.8-3-1.2-4.6-1.2c-1.8,0-3.5,0.4-5,1.3c-1.5,0.8-2.8,2.1-3.6,3.5c-0.9,1.5-1.4,3.2-1.4,5v17.1h-4.7L412.8,265.5z"/>
		<g id="Group-52" transform="translate(202.000000, 25.000000)">
			<g id="Clip-51">
			</g>
			<path id="Fill-50" d="M249.4,271.3c-1.5-0.8-2.8-2-3.7-3.5c-0.9-1.6-1.3-3.3-1.3-5.1v-19.5h-7.3v-4h7.3v-9.5l5-1.1v10.7h14.8v4
				h-14.8v18.9c-0.1,1.6,0.5,3.2,1.6,4.5c1.1,1.2,2.7,1.8,4.3,1.8c1.7,0,3.3-0.6,4.6-1.8c1.4-1.2,2.3-2.9,2.5-4.7l4.1,1.7
				c-0.4,2.6-1.8,5-4,6.5c-2.2,1.6-4.9,2.5-7.6,2.5C252.9,272.6,251,272.2,249.4,271.3"/>
		</g>
		<g id="Clip-54">
		</g>
		<polygon id="Fill-53" points="88.4,363 94,363 94,320.7 88.4,320.7 		"/>
		<path id="Fill-55" d="M99.7,333.2h4.2l0.4,4.4c1.1-1.7,2.6-3.1,4.5-4.1c1.9-1,4-1.5,6.2-1.5c2.4,0,4.7,0.6,6.7,1.7
			c1.9,1.1,3.5,2.7,4.5,4.7c1.1,2.1,1.6,4.4,1.6,6.8V363h-4.7v-17.9c0-1.6-0.3-3.2-1.1-4.7c-0.7-1.3-1.7-2.5-3-3.2
			c-1.4-0.8-3-1.2-4.6-1.2c-1.8,0-3.5,0.4-5,1.3c-1.5,0.8-2.8,2.1-3.6,3.5c-0.9,1.5-1.4,3.2-1.4,5V363h-4.7V333.2z"/>
		<path id="Fill-56" d="M141.2,361.7c-2-0.8-3.8-2-5.3-3.5c-1.3-1.4-2.2-3.2-2.5-5.1l4.7-0.9c0.1,1.3,0.7,2.5,1.6,3.5
			c1,1.1,2.2,1.9,3.7,2.4c1.6,0.6,3.3,0.9,5,0.9c1.5,0,3-0.2,4.4-0.7c1.2-0.4,2.2-1,3.1-1.8c0.7-0.7,1.1-1.6,1.2-2.6
			c0-0.9-0.4-1.8-1.2-2.4c-0.9-0.7-2-1.2-3.1-1.4c-1.2-0.3-2.8-0.7-4.8-1c-2.2-0.4-4.5-0.8-6.7-1.4c-1.6-0.5-3.1-1.3-4.3-2.4
			c-1.2-1.3-1.9-2.9-1.8-4.6c0-1.6,0.5-3.1,1.5-4.4c1.1-1.4,2.5-2.4,4.2-3.1c1.9-0.8,3.9-1.2,5.9-1.1c2,0,4,0.3,5.9,1
			c1.7,0.6,3.2,1.6,4.4,2.8c1.2,1.1,2,2.5,2.3,4.1L155,341c-0.2-1.5-1.2-2.9-2.6-3.7c-1.7-1-3.6-1.5-5.6-1.5c-1.2,0-2.4,0.2-3.5,0.7
			c-1,0.4-1.9,1-2.5,1.8c-0.6,0.7-0.9,1.6-0.9,2.5c0,0.9,0.4,1.8,1.2,2.3c0.7,0.5,1.4,0.9,2.2,1.1c0.6,0.1,2.6,0.5,5.8,1
			c2.2,0.4,4.3,0.9,6.4,1.6c1.7,0.5,3.2,1.4,4.4,2.6c1.2,1.2,1.8,2.7,1.7,4.4c0,1.7-0.6,3.4-1.7,4.8c-1.2,1.5-2.9,2.6-4.8,3.4
			c-2.1,0.8-4.5,1.3-6.8,1.2C145.9,363,143.5,362.6,141.2,361.7"/>
		<path id="Fill-57" d="M173.5,364.6c-1.5-0.8-2.7-1.9-3.6-3.4c-0.8-1.5-1.3-3.2-1.2-4.9v-18.7h-7v-3.8h7v-9.1l4.8-1.1v10.3h14.2
			v3.8h-14.2v18.2c-0.1,1.6,0.5,3.1,1.5,4.3c1.1,1.1,2.6,1.7,4.1,1.7c1.6,0,3.2-0.6,4.4-1.7c1.3-1.2,2.2-2.8,2.4-4.6l3.9,1.6
			c-0.4,2.5-1.7,4.8-3.8,6.3c-2.1,1.6-4.7,2.4-7.4,2.4C176.9,365.9,175.1,365.4,173.5,364.6"/>
		<path id="Fill-58" d="M194,331h5.7V363h-5.6L194,331z M193.9,324c-0.8-0.7-1.2-1.6-1.2-2.6c0-0.9,0.4-1.8,1.2-2.5
			c0.8-0.7,1.9-1,3-1c1.1,0,2.2,0.3,3.1,1c0.8,0.7,1.2,1.6,1.2,2.5c0,1-0.4,1.9-1.2,2.6c-0.8,0.7-1.9,1-3.1,1
			C195.8,325,194.7,324.6,193.9,324L193.9,324z"/>
		<path id="Fill-59" d="M213,364.6c-1.5-0.8-2.7-1.9-3.6-3.4c-0.8-1.5-1.3-3.2-1.2-4.9v-18.7h-7v-3.8h7v-9.2l4.8-1.1v10.3h14.3v3.8
			H213v18.2c-0.1,1.6,0.5,3.1,1.5,4.3c1.1,1.1,2.6,1.7,4.1,1.7c1.6,0,3.2-0.6,4.4-1.7c1.3-1.2,2.2-2.8,2.4-4.6l3.9,1.5
			c-0.4,2.5-1.7,4.8-3.8,6.3c-2.1,1.6-4.7,2.4-7.4,2.4C216.4,365.9,214.6,365.5,213,364.6"/>
		<path id="Fill-60" d="M238.4,364.2c-1.9-1.1-3.5-2.7-4.5-4.7c-1.1-2.1-1.6-4.5-1.6-6.8v-17.9h4.7v17.9c0,1.6,0.3,3.2,1.1,4.7
			c0.7,1.3,1.7,2.4,3.1,3.2c1.4,0.8,3,1.2,4.6,1.2c1.7,0,3.5-0.4,5-1.3c1.5-0.8,2.8-2.1,3.7-3.5c0.9-1.5,1.4-3.2,1.4-5v-17.1h4.8
			v29.8h-4.3l-0.5-4.4c-1,1.7-2.6,3.2-4.5,4.1c-1.9,1-4,1.5-6.1,1.5C242.8,365.9,240.4,365.3,238.4,364.2"/>
		<path id="Fill-61" d="M275.1,364.6c-1.5-0.8-2.7-2-3.6-3.4c-0.8-1.5-1.3-3.2-1.2-4.9v-18.7h-7v-3.8h7v-9.2l4.8-1.1v10.3h14.3v3.8
			h-14.3v18.2c-0.1,1.6,0.5,3.1,1.5,4.3c1.1,1.1,2.6,1.7,4.1,1.7c1.6,0,3.2-0.6,4.4-1.7c1.3-1.2,2.2-2.8,2.4-4.6l3.9,1.5
			c-0.4,2.5-1.7,4.8-3.8,6.3c-2.1,1.6-4.7,2.4-7.4,2.4C278.5,365.9,276.7,365.5,275.1,364.6"/>
		<path id="Fill-62" d="M304.5,337.1c-1.5,0.8-2.8,1.9-3.7,3.3c-1,1.4-1.6,3.1-1.9,4.8h20.5c-0.2-1.7-0.8-3.3-1.7-4.8
			c-0.8-1.3-2-2.5-3.5-3.2c-1.5-0.8-3.2-1.2-4.8-1.1C307.8,336,306.1,336.4,304.5,337.1L304.5,337.1z M317.3,333.9
			c2.2,1.3,4,3.2,5.2,5.4c1.3,2.5,1.9,5.1,1.9,7.9v0.8c0,0.3,0,0.6-0.1,0.9H299c0.2,1.9,0.8,3.7,1.9,5.3c1.1,1.5,2.5,2.8,4.2,3.6
			c3.9,1.8,8.4,1.7,12.2-0.3c1.7-0.9,3.2-2.3,4.1-3.9l4,1.5c-1.1,2.4-3.1,4.4-5.5,5.6c-5.4,2.9-12,2.9-17.5,0.2
			c-2.5-1.3-4.5-3.3-5.9-5.6c-1.4-2.5-2.2-5.3-2.1-8.2c0-2.7,0.6-5.4,2-7.8c1.3-2.3,3.2-4.1,5.5-5.4c2.4-1.3,5.2-2,8-2
			C312.4,332,315,332.6,317.3,333.9L317.3,333.9z"/>
		<path id="Fill-63" d="M336.4,364.6c0.8-0.4,1.4-1.1,1.8-1.8c0.9-1.6,0.9-3.6,0-5.2c-0.4-0.8-1.1-1.4-1.8-1.8
			c-0.8-0.4-1.7-0.7-2.6-0.7c-0.9,0-1.8,0.2-2.6,0.7c-0.8,0.4-1.4,1.1-1.8,1.8c-0.4,0.8-0.7,1.7-0.7,2.6c0,0.9,0.2,1.8,0.7,2.6
			c0.4,0.8,1.1,1.4,1.8,1.8c0.8,0.4,1.7,0.7,2.6,0.6C334.7,365.3,335.6,365.1,336.4,364.6 M330.9,365.1c-0.8-0.5-1.5-1.2-2-2
			c-0.5-0.9-0.7-1.9-0.7-2.9c0-1,0.2-2,0.7-2.9c0.5-0.8,1.2-1.5,2-2c0.9-0.5,1.9-0.8,2.9-0.7c1,0,2,0.2,2.9,0.7c0.8,0.5,1.5,1.2,2,2
			c0.5,0.9,0.7,1.9,0.7,2.9c0,1-0.2,2-0.7,2.9c-0.5,0.8-1.2,1.5-2,2c-0.9,0.5-1.9,0.7-2.9,0.7C332.8,365.9,331.8,365.6,330.9,365.1"
			/>
		<path id="Fill-64" d="M332.1,359.9V358h1.6c0.4,0,0.8,0.1,1.2,0.3c0.3,0.2,0.5,0.4,0.5,0.7c0,0.3-0.1,0.5-0.4,0.7
			c-0.3,0.2-0.7,0.3-1.2,0.3H332.1z M336.6,362.9l-1.9-2.4c0.2,0,0.4-0.1,0.6-0.2c0.8-0.3,1.2-0.8,1.2-1.4c0-0.3-0.1-0.6-0.3-0.8
			c-0.2-0.2-0.5-0.4-0.9-0.6c-0.4-0.1-0.8-0.2-1.2-0.2H331v5.6h1.1v-2.3h1.4l1.8,2.4L336.6,362.9z"/>
	</g>
</g>
</svg>
